<svg xmlns="http://www.w3.org/2000/svg" xmlns:xlink="http://www.w3.org/1999/xlink" width="277.16" height="28.352" viewBox="0 0 277.16 28.352">
  <defs>
    <clipPath id="clip-path">
      <rect id="長方形_194" data-name="長方形 194" width="277.16" height="28.352"/>
    </clipPath>
  </defs>
  <g id="グループ_333" data-name="グループ 333" clip-path="url(#clip-path)">
    <path id="パス_489" data-name="パス 489" d="M34,10.8H32.365v7.839c.954-.3,1.389-.435,2.069-.707l.163,3.1A54.4,54.4,0,0,1,26.4,23.734l-.544-3.539a32.093,32.093,0,0,0,3.239-.654V10.8H26.187V7.592H29.1V1.168h3.265V7.592H34.6v2.26l1.252-.327V3.292H39.06V8.681l2.749-.734V1.168H45.05V7.1l6.1-1.606a85.705,85.705,0,0,1-.463,11.132c-.135.926-.49,2.64-2.64,2.64H45.974l-.542-3.32h1.305c.572,0,.79-.109.954-.681a36.492,36.492,0,0,0,.3-5.579l-2.938.789v9.772H41.809v-8.9l-2.749.708V22.4c0,.516.163.653.763.653H47.5c.845,0,1.171,0,1.362-3.348l3.1.763c-.163,3.946-.981,5.907-3.267,5.907H38.462c-2.1,0-2.613-1.17-2.613-2.451V12.928l-1.5.38Z" transform="translate(7.689 0.348)"/>
    <path id="パス_490" data-name="パス 490" d="M53.92,22.2a53,53,0,0,1-6.479,2.124L46.9,20.865c.736-.136,1.688-.327,3.049-.708V13.815H47.525V10.63h2.422V5.459H47.17V2.3h8.71V5.3h6.587V1.24H65.68V5.3h3.865a11.486,11.486,0,0,0-2.913-2.451l2.042-1.823A19.808,19.808,0,0,1,71.83,3.5L69.87,5.3h2.914V8.506h-7.1V9.46A22.56,22.56,0,0,0,73.3,22.58l-1.988,3.184a24.629,24.629,0,0,1-5.634-8.656v7.4a2.138,2.138,0,0,1-2.368,2.368H59.365l-.436-3.294h2.858c.407,0,.68-.08.68-.489V8.506H55.854V5.459H53.159V10.63H55.5v3.185h-2.34v5.416c1.225-.381,1.986-.681,2.858-1.034l.327,2.558a18.147,18.147,0,0,0,4.3-3.946l1.334,2.612A24.1,24.1,0,0,1,55.445,25.3ZM58.657,9.405A18.3,18.3,0,0,1,61.6,14.359L58.766,15.8a17.89,17.89,0,0,0-2.749-5.008Zm14.208,1.17a20.01,20.01,0,0,1-2.887,5.362l-2.612-1.579a13.6,13.6,0,0,0,2.666-5.035Z" transform="translate(13.945 0.305)"/>
    <path id="パス_491" data-name="パス 491" d="M72.541,5.269c-2.259.136-3.13.163-4,.163l-.518-3.049A39.328,39.328,0,0,0,78.066,1.105l1.279,3.158a21.16,21.16,0,0,1-3.594.708V8.318h3.132v3.13H75.752v.218a18.438,18.438,0,0,0,3.512,4.19l-1.8,3.021a14.538,14.538,0,0,1-1.716-2.666V26.855H72.541V16.347a34.375,34.375,0,0,1-3.7,5.907l-1.279-4.137a19.5,19.5,0,0,0,4.655-6.668H68.186V8.318h4.355Zm15.6,11.023V1.214h3.456V15.586l2.178-.463L94.1,18.5l-2.505.519v7.839H88.137V19.723l-8.9,1.824L78.829,18.2Zm-6.642-7.24a18.847,18.847,0,0,1,4.9,3.839l-2.316,2.531A20.058,20.058,0,0,0,79.4,11.475ZM82.8,2.193a15.78,15.78,0,0,1,4.926,3.892L85.443,8.672A19.127,19.127,0,0,0,80.815,4.59Z" transform="translate(20.088 0.329)"/>
    <path id="パス_492" data-name="パス 492" d="M110.267,10.215v2.667a26.758,26.758,0,0,1-6.423,4h10.969v3.13H103.571v4.139c0,1.332-.109,2.8-2.667,2.8h-5.28l-.572-3.377h3.974c.952,0,1.061-.108,1.061-1.06V20.014H88.954v-3.13h11.132v-1.8l1.116.029a10.954,10.954,0,0,0,3.376-1.851H93.526V10.215ZM92.9,5.424a16.927,16.927,0,0,0-1.688-3.158L94.507,1.26a15.492,15.492,0,0,1,2.1,4.164h4.163A17.142,17.142,0,0,0,99,2.049l3.321-1.007a17.255,17.255,0,0,1,1.986,4.382h3.021a24.219,24.219,0,0,0,1.742-4.273l3.647.926a29.156,29.156,0,0,1-1.661,3.347h3.076v6.452h-3.32V8.446H92.982v3.43H89.634V5.424Z" transform="translate(26.449 0.31)"/>
    <path id="パス_493" data-name="パス 493" d="M113.026,17.376a34.67,34.67,0,0,1-.926,7.813l-2.422-1.061a27.686,27.686,0,0,0,.9-7.131Zm.026-6.614a23.55,23.55,0,0,0-3.347-3.239l1.441-2.8a5.487,5.487,0,0,1,.763.625,23.61,23.61,0,0,0,1.906-4.11L116.728,2a40.533,40.533,0,0,1-2.94,5.226c.272.3.653.762.979,1.117a42.921,42.921,0,0,0,2.587-4.328L120.02,5.1c-.326.571-.571.978-1.007,1.687a16.688,16.688,0,0,0,4.737-5.5L126.744,2.3a21.312,21.312,0,0,1-5.634,6.888l-2.124-2.368c-.952,1.5-2.967,4.328-4.273,5.961,1.633-.083,2.287-.109,2.7-.138-.3-.871-.436-1.2-.654-1.714l2.2-.79a23.717,23.717,0,0,1,1.879,5.172l-2.451.9c-.109-.518-.162-.708-.244-1.035l-1.5.138V26.931h-2.858V15.581c-2.667.217-2.967.244-3.565.271L110,12.858a12.554,12.554,0,0,0,1.552,0Zm5.472,13.745a10.509,10.509,0,0,0,1.17-2.423l-1.988.381a42.881,42.881,0,0,0-.327-5.062l2.287-.381a28.384,28.384,0,0,1,.49,3.648,20.9,20.9,0,0,0,.516-2.369l2.451.572a18.87,18.87,0,0,1-1.742,7.186Zm5.961-9.881c-2.369.109-2.64.136-3.212.136l-.218-3.021h1.334a47.58,47.58,0,0,0,2.64-6.125l3.267.654a42.534,42.534,0,0,1-2.831,5.416c1.578-.027,2.64-.027,4.79-.163a27.759,27.759,0,0,0-1.9-2.695L130.8,7.387a25.64,25.64,0,0,1,4.681,6.532l-2.857,1.742a16.365,16.365,0,0,0-.789-1.524c-2.477.3-3.621.354-5.717.436a17.026,17.026,0,0,1,3.947,2.122L128.405,19.2a17.951,17.951,0,0,0-5.091-2.695Zm2.15,4.328v4.083c0,.3,0,.654.545.654h1.007c.518,0,.736,0,.871-2.64l2.913.625c-.381,3.021-.625,5.008-2.313,5.008H125.9c-.925,0-2.233-.3-2.233-1.633v-6.1Zm7.785-9.989a18.268,18.268,0,0,1-5.636-6.7l2.858-1.144a15.21,15.21,0,0,0,4.546,5.062Zm-.817,8.383a30.02,30.02,0,0,1,2.451,7L133.033,25.6a28.759,28.759,0,0,0-2.151-7.131Z" transform="translate(32.611 0.335)"/>
    <path id="パス_494" data-name="パス 494" d="M136.91,9.695a39.615,39.615,0,0,1-4.355,2.178l-1.8-3.43a24.145,24.145,0,0,0,11.3-7.295h3.7c1.524,1.768,4.136,4.572,11.3,7.295l-1.879,3.43a42.462,42.462,0,0,1-4.137-2.1v1.96H136.91Zm-3.376,4.382h20.66V26.816h-3.43V25.809h-13.8v1.007h-3.43Zm3.43,8.682h13.8V17.152h-13.8Zm12.248-14.1a27.511,27.511,0,0,1-5.389-4.682,21.718,21.718,0,0,1-5.253,4.682Z" transform="translate(38.879 0.342)"/>
    <path id="パス_495" data-name="パス 495" d="M153.778,16.359c-.327.381-.463.544-1.034,1.116l-1.2-4.03c1.988-2.313,2.858-4.572,3.13-8.3h-2.64V1.986h9.826V5.144h-4.083a22.652,22.652,0,0,1-.845,4.655h4.6V24.17H156.69v1.906h-2.913Zm2.829,4.735h2.205v-8.3h-2.205Zm8.357-15.951h-2.042V1.986h14.454V5.144h-2.368v5.8h2.776v3.212h-2.776V26.621h-3.294V14.155h-3.456v1.47c0,7.295-2.586,9.826-3.784,11l-2.857-2.586c1.441-1.443,3.347-3.348,3.347-8.6V14.155h-2.532V10.943h2.532Zm3.294,5.8h3.456v-5.8h-3.456Z" transform="translate(45.06 0.591)"/>
    <path id="パス_496" data-name="パス 496" d="M185.947,11.669c-.027.734-.054,1.578-.191,2.695h7.484v8.3c0,.436.029.627.572.627h1.034a.674.674,0,0,0,.763-.627,31.736,31.736,0,0,0,.108-3.185l2.967.708c-.135,4.927-.38,6.288-2.2,6.288h-4.491c-2.15,0-2.15-1.553-2.15-2.4V17.52h-4.655c-.516,1.88-2.124,7.022-10.7,9.446l-1.715-3.347c6.614-1.335,8.165-4.11,8.847-6.1h-7.4V14.363H182.3a25.667,25.667,0,0,0,.191-2.695Zm.9-5.471h-2.858c-.817,3.32-2.885,5.907-8.574,7.295l-1.279-3.076c4.381-.708,5.852-1.906,6.751-4.219h-3.812V8.865h-3.32V3.2h10.288V1.19h3.43V3.2h10.4V8.865h-.952c-.218,1.85-.49,3.512-2.342,3.512h-5.2c-1.2,0-2.532,0-2.532-1.988Zm2.94,2.695c0,.327,0,.6.545.6h2.64c.518,0,.707-.218.843-1.851l.762.163V6.2h-4.79Z" transform="translate(51.372 0.354)"/>
    <path id="パス_497" data-name="パス 497" d="M195.406,7.248H205.7v10.7h-7.1c-.054,1.361-.244,5.58-2.259,8.928l-2.669-2.613a14.865,14.865,0,0,0,1.742-7.922Zm11.052-2.041H194.1V2.077h12.357Zm-7.813,9.58h3.865V10.3h-3.865ZM219.522,4.2A29.15,29.15,0,0,1,210.7,6V9.371h8.874v3.322h-2.586v14.18H213.67V12.693H210.7c.029,5.388-.68,10.1-3.892,14.125L203.873,24.5a14.471,14.471,0,0,0,3.538-10.287V3a29.869,29.869,0,0,0,10.344-1.959Z" transform="translate(57.583 0.31)"/>
    <path id="パス_498" data-name="パス 498" d="M7.322,3.767a7.976,7.976,0,0,1-.871,1.642L4.939,4.382c.057-.071.086-.1.113-.144H3.8v.9a9.892,9.892,0,0,0,2,2.683L4.753,9.262A8.73,8.73,0,0,1,3.8,7.493v6.024H2.156V7.564a10.525,10.525,0,0,1-1.5,3.182L0,8.506A13.137,13.137,0,0,0,2,4.238H.271V2.582H2.156V.1H3.8V2.582h1.57V3.767A10.689,10.689,0,0,0,6.509.47l1.712.2c-.086.4-.157.728-.342,1.427h.9V.1h1.684v2h2.955v1.67H10.462V5.479h3.212v1.7H10.99a10.2,10.2,0,0,0,2.927,3.439l-.8,1.941a10.432,10.432,0,0,1-2.656-3.61v4.568H8.778V8.962A10.725,10.725,0,0,1,5.8,12.516L4.739,10.889a10.951,10.951,0,0,0,3.525-3.71h-2.9v-1.7H8.778V3.767Z" transform="translate(0 0.03)"/>
    <path id="パス_499" data-name="パス 499" d="M11.16,11.317c.828-.07,1.627-.141,2.868-.284V7.221H11.46V5.508h6.807V7.221H15.812V10.79c1.213-.173,2.141-.328,2.911-.457l.014,1.712c-2,.428-4.724.785-7.335,1.1ZM22.949,2.255H24.6V3.967H20.452c.2,4.9,1.47,7.365,2.126,7.365.512,0,.856-1.242,1.056-2.041l1.184,1.426c-.143.629-.671,2.855-2.084,2.855-.756,0-3.74-.642-4.1-9.605H11.23V2.255h7.351c-.013-.4-.043-1.841-.043-2.141H20.38c0,.227.014,1.227.029,2.141h2.026A8.724,8.724,0,0,0,20.821.928L22.093,0a7.305,7.305,0,0,1,1.9,1.5Z" transform="translate(3.318 0.001)"/>
    <path id="パス_500" data-name="パス 500" d="M3.228,16.018a19.414,19.414,0,0,1-2.3,1.2L.044,15.461c3.469-1.356,5.167-2.94,5.938-4.081H8.008c.771.97,2.169,2.569,5.9,4.081L12.989,17.2a13.842,13.842,0,0,1-2.255-1.213V16.8H3.228Zm8.277,8.95c-.157-.287-.256-.5-.571-1.015A88.3,88.3,0,0,1,1,24.567l-.228-1.8c.186,0,1.712.014,2.042.014A21,21,0,0,0,4.04,19.83H.615V18.16h12.7v1.67H6.082c-.542,1.27-.9,2.084-1.341,2.94.457,0,2.84-.057,5.18-.243-.314-.428-.685-.9-1.441-1.77l1.513-.813a22.852,22.852,0,0,1,3.141,4.1Zm-1.9-9.749a14.22,14.22,0,0,1-2.626-2.412,11.363,11.363,0,0,1-2.569,2.412Z" transform="translate(0.013 3.384)"/>
    <path id="パス_501" data-name="パス 501" d="M15.014,24.853H13.229v-5.18a15.871,15.871,0,0,1-1.627,1.27l-.585-1.956a10.147,10.147,0,0,0,3.653-3.825H11.231v-1.67h2V11.38h1.785v2.112H16.6v1.67A13.5,13.5,0,0,1,15.285,17.4a6.791,6.791,0,0,0,1.984,1.655l-.872,1.67a10.137,10.137,0,0,1-1.383-1.471Zm4.6-13.473h1.812V15.2h2.94v1.814h-2.94v5.594h3.211v1.8H16.154v-1.8h3.455V17.018h-2.8V15.2h2.8Z" transform="translate(3.276 3.384)"/>
  </g>
</svg>
