<svg xmlns="http://www.w3.org/2000/svg" xmlns:xlink="http://www.w3.org/1999/xlink" width="216.161" height="51.15" viewBox="0 0 216.161 51.15">
  <defs>
    <clipPath id="clip-path">
      <rect id="長方形_198" data-name="長方形 198" width="216.161" height="51.15" transform="translate(0 0)" fill="#00387c"/>
    </clipPath>
    <clipPath id="clip-path-2">
      <path id="パス_514" data-name="パス 514" d="M48.8,10.241A4.349,4.349,0,1,0,53.144,5.89,4.349,4.349,0,0,0,48.8,10.241" fill="#00387c"/>
    </clipPath>
  </defs>
  <g id="グループ_344" data-name="グループ 344" transform="translate(0 0)">
    <g id="グループ_341" data-name="グループ 341">
      <g id="グループ_340" data-name="グループ 340" clip-path="url(#clip-path)">
        <path id="パス_503" data-name="パス 503" d="M88.755,12.76V30.607c0,2.411-.194,4.2-2.216,6.222A8.377,8.377,0,0,1,80.2,39.278a6.85,6.85,0,0,1-4.082-1.166,9.266,9.266,0,0,1-2.567-2.644l4.394-4.511a3.613,3.613,0,0,0,.933,2.061,2.359,2.359,0,0,0,1.283.467,1.941,1.941,0,0,0,1.167-.428,4.006,4.006,0,0,0,.7-2.6V12.76Z" fill="#00387c"/>
        <path id="パス_504" data-name="パス 504" d="M106.64,24h13.375c0,5.134-1.049,8.788-4.16,11.665a12.663,12.663,0,0,1-9.137,3.266,13.4,13.4,0,0,1-9.955-3.848,13.073,13.073,0,0,1-3.732-9.372,13.517,13.517,0,0,1,3.888-9.721,15.078,15.078,0,0,1,17.07-2.06,12.714,12.714,0,0,1,4.627,5.326L112.2,21.9a6.36,6.36,0,0,0-1.866-2.606,5.444,5.444,0,0,0-3.616-1.282,6.263,6.263,0,0,0-4.433,1.789,8.743,8.743,0,0,0-2.256,5.948,8.116,8.116,0,0,0,2.061,5.6,6.139,6.139,0,0,0,4.744,1.983,5.554,5.554,0,0,0,3.733-1.206,4.612,4.612,0,0,0,1.594-2.877H106.64Z" fill="#00387c"/>
        <rect id="長方形_196" data-name="長方形 196" width="6.727" height="25.935" transform="translate(124.29 12.76)" fill="#00387c"/>
        <path id="パス_505" data-name="パス 505" d="M137.819,32.2h5.833l-6.688,12.287h-4Z" fill="#00387c"/>
        <rect id="長方形_197" data-name="長方形 197" width="6.727" height="25.935" transform="translate(157.375 12.76)" fill="#00387c"/>
        <path id="パス_506" data-name="パス 506" d="M168.961,21.314h6.221v2.178a6.554,6.554,0,0,1,5.522-2.567,7.03,7.03,0,0,1,5.133,1.867c1.477,1.477,1.632,2.955,1.632,4.86V38.695h-6.221V29.907c0-1.011.039-2.527-.778-3.383a2.6,2.6,0,0,0-1.983-.738,3.408,3.408,0,0,0-2.294.816,4,4,0,0,0-1.011,2.761v9.332h-6.221Z" fill="#00387c"/>
        <path id="パス_507" data-name="パス 507" d="M204.848,38.307a9.238,9.238,0,0,1-4.317.972,9.6,9.6,0,0,1-6.843-2.644,9.1,9.1,0,0,1-2.683-6.494,9.464,9.464,0,0,1,2.8-6.726,10.022,10.022,0,0,1,7-2.644,8.915,8.915,0,0,1,4.044.972v5.21a5.549,5.549,0,0,0-3.227-1.127,4.081,4.081,0,0,0-3.034,1.2,4.231,4.231,0,0,0-1.205,2.994,4.463,4.463,0,0,0,1.089,2.916,4.222,4.222,0,0,0,3.188,1.322,4.708,4.708,0,0,0,3.189-1.166Z" fill="#00387c"/>
        <path id="パス_508" data-name="パス 508" d="M209.318,38.229a4.044,4.044,0,0,1,2.838-6.882,4.088,4.088,0,0,1,2.878,1.244,4.038,4.038,0,0,1-.04,5.638,3.942,3.942,0,0,1-5.676,0" fill="#00387c"/>
        <path id="パス_509" data-name="パス 509" d="M24.321,16.842H12.879l-.31.618c2.685,0,1.953,1.051,1.482,1.993L7.008,34.159C6.334,35.5,4.995,37.07,3.647,37.07c-.428,0-.572-.383-.159-.8a1.819,1.819,0,0,0,.878-1.09,1.768,1.768,0,0,0-1.824-2.154A2.178,2.178,0,0,0,.059,34.9c-.426,1.858,1.534,3.086,2.912,3.282,3.929.56,7.156-.29,10.323-6.172L19.74,19.453c.473-.942.42-1.993,4.269-1.993Z" fill="#00387c"/>
        <path id="パス_510" data-name="パス 510" d="M42.267,25.41H32.3l-.218.485c2.728,0,2.826.842,2.165,2.3l-1.726,3.175c-.335.738-.791,1.023-1.91,1.382a7.632,7.632,0,0,1-2.939.427c-4.565,0-5.229-3.818-3.445-7.75,2.028-4.473,6.8-7.8,10.006-7.8,3.876,0,5.276,1.681,5.295,4.391h.76l2.157-5.571h-.69c-1.678,1.886-3.383.157-7.39.157-7.734,0-13.294,3.78-15.6,8.863-2.723,6,2.421,8.76,8,8.76a36.556,36.556,0,0,0,9.732-1.809l2.2-4.222c.659-1.455,1.192-2.27,3.338-2.3Z" fill="#00387c"/>
        <path id="パス_511" data-name="パス 511" d="M46.056,16.76l-.267.5c3.346,0,3.177.85,2.767,1.619l-7.145,12.1A3.391,3.391,0,0,1,38.5,32.6l-.272.508H48.664l.267-.508c-3.348,0-2.865-.848-2.447-1.626l7.141-12.1c.413-.769.837-1.619,4.186-1.619l.269-.5Z" fill="#00387c"/>
        <path id="パス_512" data-name="パス 512" d="M34.531,1.953A23.528,23.528,0,0,1,49.259,7.114l1.205-1.538a25.57,25.57,0,0,0-41.51,20v.034l1.966-.362A23.614,23.614,0,0,1,34.531,1.953" fill="#00387c"/>
        <path id="パス_513" data-name="パス 513" d="M55.5,14.7A23.62,23.62,0,1,1,12.934,35.137l-1.715.959A25.577,25.577,0,1,0,57.146,13.625Z" fill="#00387c"/>
      </g>
    </g>
    <g id="グループ_343" data-name="グループ 343">
      <g id="グループ_342" data-name="グループ 342" clip-path="url(#clip-path-2)">
        <rect id="長方形_199" data-name="長方形 199" width="11.994" height="11.994" transform="translate(44.875 8.358) rotate(-32.186)" fill="#00387c"/>
      </g>
    </g>
  </g>
</svg>
